<?xml version="1.0" encoding="UTF-8" standalone="no"?>
<!-- Created with Inkscape (http://www.inkscape.org/) -->

<svg
   xmlns:dc="http://purl.org/dc/elements/1.1/"
   xmlns:cc="http://creativecommons.org/ns#"
   xmlns:rdf="http://www.w3.org/1999/02/22-rdf-syntax-ns#"
   xmlns:svg="http://www.w3.org/2000/svg"
   xmlns="http://www.w3.org/2000/svg"
   xmlns:sodipodi="http://sodipodi.sourceforge.net/DTD/sodipodi-0.dtd"
   xmlns:inkscape="http://www.inkscape.org/namespaces/inkscape"
   width="32px"
   height="32px"
   id="svg3835"
   version="1.1"
   inkscape:version="0.48.4 r9939"
   sodipodi:docname="counter_earth.svg"
   inkscape:export-filename="C:\Users\Joshua\Dropbox\GaCl\images\objects\counter_earth.png"
   inkscape:export-xdpi="94.402176"
   inkscape:export-ydpi="94.402176">
  <defs
     id="defs3837" />
  <sodipodi:namedview
     id="base"
     pagecolor="#ffffff"
     bordercolor="#666666"
     borderopacity="1.0"
     inkscape:pageopacity="0.0"
     inkscape:pageshadow="2"
     inkscape:zoom="15.836083"
     inkscape:cx="1.5882676"
     inkscape:cy="17.562807"
     inkscape:current-layer="layer1"
     showgrid="true"
     inkscape:grid-bbox="true"
     inkscape:document-units="px"
     inkscape:window-width="1638"
     inkscape:window-height="822"
     inkscape:window-x="104"
     inkscape:window-y="104"
     inkscape:window-maximized="0">
    <inkscape:grid
       type="xygrid"
       id="grid3843"
       empspacing="4"
       visible="true"
       enabled="true"
       snapvisiblegridlinesonly="true" />
  </sodipodi:namedview>
  <metadata
     id="metadata3840">
    <rdf:RDF>
      <cc:Work
         rdf:about="">
        <dc:format>image/svg+xml</dc:format>
        <dc:type
           rdf:resource="http://purl.org/dc/dcmitype/StillImage" />
        <dc:title></dc:title>
      </cc:Work>
    </rdf:RDF>
  </metadata>
  <g
     id="layer1"
     inkscape:label="Layer 1"
     inkscape:groupmode="layer">
    <path
       sodipodi:type="arc"
       style="fill:#000000;stroke:none;stroke-width:1;stroke-miterlimit:4;stroke-dasharray:none"
       id="path4357"
       sodipodi:cx="16"
       sodipodi:cy="16"
       sodipodi:rx="14"
       sodipodi:ry="14"
       d="M 30,16 A 14,14 0 1 1 2,16 14,14 0 1 1 30,16 z" />
    <path
       d="M 30,16 A 14,14 0 1 1 2,16 14,14 0 1 1 30,16 z"
       sodipodi:ry="14"
       sodipodi:rx="14"
       sodipodi:cy="16"
       sodipodi:cx="16"
       id="path4361"
       style="fill:#ffffff;stroke:none"
       sodipodi:type="arc"
       transform="matrix(0.390625,0,0,0.390625,9.75,9.75)" />
    <path
       d="m 29.787309,13.568926 a 14,14 0 0 1 0,4.862148 L 16,16 z"
       sodipodi:ry="14"
       sodipodi:rx="14"
       sodipodi:cy="16"
       sodipodi:cx="16"
       id="path4363"
       style="fill:#ffffff;stroke:none"
       sodipodi:type="arc"
       sodipodi:start="6.1086524"
       sodipodi:end="6.4577182"
       transform="matrix(1.25,0,0,1.25,-5.75,-4)" />
    <path
       sodipodi:end="2.268928"
       sodipodi:start="1.9198622"
       sodipodi:type="arc"
       style="fill:#ffffff;stroke:none"
       id="path4365"
       sodipodi:cx="16"
       sodipodi:cy="16"
       sodipodi:rx="14"
       sodipodi:ry="14"
       d="M 11.211718,29.155697 A 14,14 0 0 1 7.0009738,26.724622 L 16,16 z"
       transform="matrix(1.25,0,0,1.25,-2.8751217,-5.6444621)" />
    <path
       d="M 7.0009737,5.2753776 A 14,14 0 0 1 11.211718,2.8443035 L 16,16 z"
       sodipodi:ry="14"
       sodipodi:rx="14"
       sodipodi:cy="16"
       sodipodi:cx="16"
       id="path4367"
       style="fill:#ffffff;stroke:none"
       sodipodi:type="arc"
       sodipodi:start="4.0142573"
       sodipodi:end="4.3633231"
       transform="matrix(1.25,0,0,1.25,-2.8751217,-2.3555379)" />
    <path
       sodipodi:end="1.2217305"
       sodipodi:start="0.87266463"
       sodipodi:type="arc"
       style="fill:#000000;stroke:none"
       id="path4383"
       sodipodi:cx="16"
       sodipodi:cy="16"
       sodipodi:rx="14"
       sodipodi:ry="14"
       d="m 24.999026,26.724622 a 14,14 0 0 1 -4.210744,2.431075 L 16,16 z" />
    <path
       d="m 2.2126915,18.431075 a 14,14 0 0 1 0,-4.86215 L 16,16 z"
       sodipodi:ry="14"
       sodipodi:rx="14"
       sodipodi:cy="16"
       sodipodi:cx="16"
       id="path4385"
       style="fill:#000000;stroke:none"
       sodipodi:type="arc"
       sodipodi:start="2.9670597"
       sodipodi:end="3.3161256" />
    <path
       sodipodi:end="5.4105207"
       sodipodi:start="5.0614548"
       sodipodi:type="arc"
       style="fill:#000000;stroke:none"
       id="path4387"
       sodipodi:cx="16"
       sodipodi:cy="16"
       sodipodi:rx="14"
       sodipodi:ry="14"
       d="M 20.788282,2.8443032 A 14,14 0 0 1 24.999027,5.275378 L 16,16 z" />
    <path
       transform="matrix(0.125,0,0,0.125,14,14)"
       sodipodi:type="arc"
       style="fill:#000000;stroke:none"
       id="path4389"
       sodipodi:cx="16"
       sodipodi:cy="16"
       sodipodi:rx="14"
       sodipodi:ry="14"
       d="M 30,16 A 14,14 0 1 1 2,16 14,14 0 1 1 30,16 z" />
  </g>
</svg>
