<?xml version="1.0" standalone="no"?>
<!DOCTYPE svg PUBLIC "-//W3C//DTD SVG 20010904//EN"
 "http://www.w3.org/TR/2001/REC-SVG-20010904/DTD/svg10.dtd">
<svg version="1.0" xmlns="http://www.w3.org/2000/svg"
 width="512.000000pt" height="512.000000pt" viewBox="0 0 512.000000 512.000000"
 preserveAspectRatio="xMidYMid meet">
<metadata>
Created by potrace 1.14, written by Peter Selinger 2001-2017
</metadata>
<g transform="translate(0.000000,512.000000) scale(0.100000,-0.100000)"
fill="#000000" stroke="none">
<path d="M0 2560 l0 -2560 2560 0 2560 0 0 2560 0 2560 -2560 0 -2560 0 0
-2560z m3407 1466 l838 -484 0 -982 0 -981 -838 -485 c-462 -266 -842 -484
-846 -484 -4 0 -385 218 -847 485 l-839 484 0 981 0 981 835 483 c459 266 840
484 847 485 6 1 388 -217 850 -483z"/>
<path d="M1738 3972 l-808 -467 0 -945 0 -945 806 -465 c444 -256 815 -465
825 -465 10 0 380 209 823 465 l806 465 0 945 0 945 -810 468 c-445 257 -815
467 -822 466 -7 0 -376 -210 -820 -467z m1037 83 c16 -15 25 -36 25 -55 0 -19
-9 -40 -25 -55 -15 -16 -36 -25 -55 -25 -19 0 -40 9 -55 25 -16 15 -25 36 -25
55 0 19 9 40 25 55 15 16 36 25 55 25 19 0 40 -9 55 -25z m-625 -270 c26 -32
-13 -81 -47 -59 -35 22 -23 74 17 74 10 0 23 -7 30 -15z m1160 -80 c26 -32
-13 -81 -47 -59 -35 22 -23 74 17 74 10 0 23 -7 30 -15z m-960 -40 c26 -32
-13 -81 -47 -59 -35 22 -23 74 17 74 10 0 23 -7 30 -15z m-200 -200 c26 -32
-13 -81 -47 -59 -35 22 -23 74 17 74 10 0 23 -7 30 -15z m-495 -50 c50 -49 15
-135 -55 -135 -41 0 -80 39 -80 80 0 41 39 80 80 80 19 0 40 -9 55 -25z m1600
0 c16 -15 25 -36 25 -55 0 -19 -9 -40 -25 -55 -15 -16 -36 -25 -55 -25 -19 0
-40 9 -55 25 -16 15 -25 36 -25 55 0 19 9 40 25 55 15 16 36 25 55 25 19 0 40
-9 55 -25z m-1305 -190 c26 -32 -13 -81 -47 -59 -35 22 -23 74 17 74 10 0 23
-7 30 -15z m1040 -40 c26 -32 -13 -81 -47 -59 -35 22 -23 74 17 74 10 0 23 -7
30 -15z m542 -119 c8 -102 87 -176 186 -176 23 0 42 -4 42 -10 0 -5 -19 -10
-42 -10 -99 0 -178 -74 -186 -176 -5 -63 -22 -73 -22 -12 0 99 -74 178 -176
186 -63 5 -73 22 -12 22 99 0 178 74 186 176 2 30 8 54 12 54 4 0 10 -24 12
-54z m-2317 -202 c18 -7 45 -55 45 -79 0 -26 -55 -75 -85 -75 -38 0 -75 41
-75 84 0 55 59 91 115 70z m855 -39 c26 -32 -13 -81 -47 -59 -35 22 -23 74 17
74 10 0 23 -7 30 -15z m502 -79 c8 -102 87 -176 186 -176 23 0 42 -4 42 -10 0
-5 -19 -10 -42 -10 -99 0 -178 -74 -186 -176 -5 -63 -22 -73 -22 -12 0 99 -74
178 -176 186 -63 5 -73 22 -12 22 99 0 178 74 186 176 6 69 18 69 24 0z m-822
-161 c26 -32 -13 -81 -47 -59 -35 22 -23 74 17 74 10 0 23 -7 30 -15z m2160
-160 c26 -32 -13 -81 -47 -59 -35 22 -23 74 17 74 10 0 23 -7 30 -15z m-600
-55 c50 -50 15 -134 -56 -134 -44 0 -74 31 -74 77 0 66 84 103 130 57z m-1720
-185 c26 -32 -13 -81 -47 -59 -35 22 -23 74 17 74 10 0 23 -7 30 -15z m420
-126 c0 -51 78 -129 129 -129 11 0 21 -4 21 -10 0 -5 -10 -10 -21 -10 -51 0
-129 -78 -129 -129 0 -11 -4 -21 -10 -21 -5 0 -10 10 -10 21 0 51 -78 129
-129 129 -11 0 -21 5 -21 10 0 6 10 10 21 10 32 0 85 36 108 74 12 18 21 43
21 55 0 11 5 21 10 21 6 0 10 -10 10 -21z m765 -4 c50 -49 15 -135 -55 -135
-41 0 -80 39 -80 80 0 41 39 80 80 80 19 0 40 -9 55 -25z m-1345 -30 c26 -32
-13 -81 -47 -59 -35 22 -23 74 17 74 10 0 23 -7 30 -15z m2080 -160 c26 -32
-13 -81 -47 -59 -35 22 -23 74 17 74 10 0 23 -7 30 -15z m-1720 -120 c26 -32
-13 -81 -47 -59 -35 22 -23 74 17 74 10 0 23 -7 30 -15z m1500 -166 c0 -51 78
-129 129 -129 11 0 21 -4 21 -10 0 -5 -10 -10 -21 -10 -51 0 -129 -78 -129
-129 0 -11 -4 -21 -10 -21 -5 0 -10 10 -10 21 0 51 -78 129 -129 129 -11 0
-21 5 -21 10 0 6 10 10 21 10 51 0 129 78 129 129 0 11 5 21 10 21 6 0 10 -10
10 -21z m-580 -34 c26 -32 -13 -81 -47 -59 -35 22 -23 74 17 74 10 0 23 -7 30
-15z m-175 -290 c50 -49 15 -135 -55 -135 -19 0 -40 9 -55 25 -16 15 -25 36
-25 55 0 19 9 40 25 55 15 16 36 25 55 25 19 0 40 -9 55 -25z"/>
</g>
</svg>
