<?xml version="1.0" standalone="no"?>
<!DOCTYPE svg PUBLIC "-//W3C//DTD SVG 20010904//EN"
 "http://www.w3.org/TR/2001/REC-SVG-20010904/DTD/svg10.dtd">
<svg version="1.0" xmlns="http://www.w3.org/2000/svg"
 width="700.000000pt" height="700.000000pt" viewBox="0 0 700.000000 700.000000"
 preserveAspectRatio="xMidYMid meet">
<metadata>
Created by potrace 1.11, written by Peter Selinger 2001-2013
</metadata>
<g transform="translate(0.000000,700.000000) scale(0.100000,-0.100000)"
fill="#000000" stroke="none">
<path d="M568 6880 c-222 -38 -397 -206 -443 -425 -22 -106 -22 -5804 0 -5910
40 -187 180 -344 365 -408 l65 -22 2913 -3 c3214 -3 2988 -7 3122 60 89 45
197 153 238 238 67 136 63 -88 60 3122 l-3 2913 -22 66 c-56 164 -188 296
-353 352 l-65 22 -2915 1 c-1603 1 -2936 -2 -2962 -6z m5899 -232 c77 -29 152
-104 181 -181 l22 -58 0 -2909 0 -2909 -22 -58 c-29 -77 -104 -152 -181 -181
l-58 -22 -2909 0 -2909 0 -58 22 c-77 29 -152 104 -181 181 l-22 58 0 2909 0
2909 22 58 c28 76 104 152 178 181 l55 21 2912 0 2912 1 58 -22z"/>
<path d="M2895 6283 c-194 -27 -350 -156 -407 -336 -25 -79 -36 -305 -19 -426
14 -105 61 -207 129 -277 63 -66 114 -98 206 -129 l75 -25 621 0 621 0 75 25
c92 31 143 63 206 129 68 70 115 172 129 277 15 111 6 347 -16 419 -46 150
-165 272 -318 323 -60 21 -79 22 -667 23 -333 1 -618 0 -635 -3z m1316 -140
c80 -39 150 -111 187 -191 26 -54 27 -66 30 -239 3 -147 0 -194 -13 -240 -34
-117 -116 -208 -232 -255 l-58 -23 -588 -3 c-376 -2 -608 1 -644 7 -128 24
-233 102 -289 216 l-29 60 0 210 c0 206 0 211 27 267 47 100 138 181 241 214
33 10 171 13 672 11 l630 -2 66 -32z"/>
<path d="M3019 5939 c-55 -104 -104 -153 -208 -208 l-83 -43 79 -43 c115 -63
154 -101 208 -206 l48 -92 45 89 c58 111 95 148 206 206 l89 45 -92 48 c-105
54 -143 93 -206 208 l-43 79 -43 -83z"/>
<path d="M3895 5944 c-59 -112 -100 -154 -206 -209 l-92 -48 89 -45 c111 -58
148 -95 206 -206 l45 -89 48 92 c55 106 99 150 211 209 l76 39 -82 44 c-104
55 -154 104 -208 207 -24 45 -44 82 -45 82 -1 0 -20 -35 -42 -76z"/>
<path d="M3007 4603 c-22 -883 -165 -1651 -434 -2333 -206 -522 -473 -950
-813 -1304 l-135 -141 938 -3 c515 -1 1359 -1 1875 0 l937 3 -135 141 c-632
658 -1038 1623 -1189 2829 -37 290 -61 657 -61 918 l0 147 -488 0 -489 0 -6
-257z m873 115 c0 -112 22 -512 36 -668 114 -1268 518 -2347 1141 -3047 l65
-73 -1621 0 -1622 0 77 88 c42 48 118 142 168 210 500 668 827 1595 946 2677
21 193 35 406 46 683 l6 172 379 0 379 0 0 -42z"/>
<path d="M980 3941 l0 -781 240 0 240 0 0 315 0 315 48 0 c65 -1 125 -30 162
-81 16 -23 91 -156 166 -296 l136 -253 269 0 c148 0 269 2 269 5 0 12 -226
443 -254 485 -55 83 -119 142 -180 170 l-60 27 74 24 c173 54 283 194 297 376
14 179 -67 342 -201 408 -111 54 -149 57 -698 62 l-508 5 0 -781z m846 443
c51 -26 76 -63 81 -121 5 -54 -17 -105 -58 -135 -36 -27 -172 -49 -285 -46
l-99 3 -3 150 c-1 82 0 156 3 163 9 24 309 11 361 -14z"/>
<path d="M4590 3940 l0 -780 660 0 660 0 0 175 0 175 -420 0 -420 0 0 155 0
155 380 0 380 0 0 155 0 155 -377 2 -378 3 -3 128 -3 127 406 0 405 0 0 165 0
165 -645 0 -645 0 0 -780z"/>
</g>
</svg>
